Coordinates
version=1
nRows=5
nColumns=42
inDegrees=yes

Units are S.I. units (second, meters, Newtons, ...)
If the header above contains a line with 'inDegrees', this indicates whether rotational values are in degrees (yes) or radians (no).

endheader
time	pelvis_tilt	pelvis_list	pelvis_rotation	pelvis_tx	pelvis_ty	pelvis_tz	hip_flexion_r	hip_adduction_r	hip_rotation_r	knee_angle_r	knee_adduction_r	knee_angle_r_beta	ankle_angle_r	subtalar_angle_r	mtp_angle_r	hip_flexion_l	hip_adduction_l	hip_rotation_l	knee_angle_l	knee_adduction_l	knee_angle_l_beta	ankle_angle_l	subtalar_angle_l	mtp_angle_l	lumbar_extension	lumbar_bending	lumbar_rotation	arm_flex_r	arm_add_r	arm_rot_r	elbow_flex_r	pro_sup_r	wrist_flex_r	wrist_dev_r	arm_flex_l	arm_add_l	arm_rot_l	elbow_flex_l	pro_sup_l	wrist_flex_l	wrist_dev_l
      1.52000000	      5.41259994	      4.70117897	     -4.39926397	      0.38153152	      1.00969734	      0.18783897	     -7.88277841	    -11.24508676	      1.77089119	     52.23885430	      6.34471101	      0.91174000	    -22.54633943	    -12.51803413	     -7.51780953	     11.46532432	     -0.47114899	     -9.93902777	     18.22852958	     11.03894655	      0.31814786	     -1.71175987	    -10.47517602	     -7.51780953	    -17.91699069	     -8.64028350	      5.05072239	      9.03412949	    -15.27597448	    -12.57100918	     34.52497148	     90.00000001	      0.00000000	      0.00000000	     -4.79807801	    -10.14507404	    -28.61090346	     12.12692835	     90.00000001	      0.00000000	      0.00000000
      1.53000000	      5.39125541	      4.52797056	     -4.37939193	      0.39525011	      1.01181332	      0.18633256	     -5.96345085	    -11.12955945	      1.75222174	     55.13830499	      5.98010168	      0.96234497	    -23.01694584	    -12.75485485	     -7.51748768	     10.43129995	     -0.39304169	    -10.04880629	     17.88069986	     10.94807875	      0.31207709	     -0.88698197	     -9.97743133	     -7.51748768	    -17.94290778	     -8.38998161	      4.88262238	      8.24278326	    -14.95412692	    -12.42084207	     33.72888721	     90.00000001	      0.00000000	      0.00000000	     -3.95458167	    -10.10473811	    -28.46333650	     12.76614841	     90.00000001	      0.00000000	      0.00000000
      1.54000000	      5.32592328	      4.21554827	     -4.25755435	      0.40874372	      1.01379814	      0.18495287	     -4.00840413	    -10.81824831	      1.55883628	     57.81291768	      5.60767016	      1.00902576	    -23.55940407	    -14.17556138	     -7.51663092	      9.51942364	     -0.54375835	    -10.25964536	     17.74299129	     10.89349144	      0.30967362	      0.03919098	     -8.95799142	     -7.51663092	    -17.93949276	     -7.96971653	      4.50243664	      8.10732862	    -14.53713762	    -12.33646719	     31.78298060	     90.00000001	      0.00000000	      0.00000000	     -3.13980008	    -10.11745160	    -28.07608812	     13.35318082	     90.00000001	      0.00000000	      0.00000000
      1.55000000	      5.28263459	      3.90433944	     -4.21882750	      0.42217410	      1.01568756	      0.18370460	     -2.07169319	    -10.53291905	      1.41193853	     60.24811644	      5.29478152	      1.05152800	    -22.66740239	    -14.69022902	     -7.51638011	      8.45097116	     -0.73393705	    -10.34617669	     17.31677914	     10.98128708	      0.30223481	      0.71387212	     -8.45879790	     -7.51638011	    -17.96928467	     -7.56133810	      4.31755215	      7.34234890	    -14.20945000	    -12.26494338	     31.08331098	     90.00000001	      0.00000000	      0.00000000	     -2.23449863	    -10.11370385	    -27.89028553	     14.05591853	     90.00000001	      0.00000000	      0.00000000
      1.56000000	      5.09133723	      3.58738951	     -4.02783874	      0.43539353	      1.01733325	      0.18240390	      0.01113047	    -10.22675897	      0.94209264	     62.44297690	      4.92362834	      1.08983554	    -21.63123489	    -15.73169697	     -7.51602687	      7.58775996	     -0.91828464	    -10.16871253	     16.91917205	     11.03875921	      0.29529526	      1.54845622	     -7.75712090	     -7.51602687	    -17.85256809	     -7.10873578	      3.91393490	      6.89103136	    -13.80944294	    -12.16813300	     29.75905013	     90.00000001	      0.00000000	      0.00000000	     -1.35328713	    -10.19199251	    -27.53274067	     14.71580578	     90.00000001	      0.00000000	      0.00000000
